# xmcd
#
# Track frame offsets: 
#        150
#        35524
#        70752
#        92200
#        107470
#        127660
#        142750
#        164290
#        180820
#        197620
#        213130
#        235870
#        255970
#        278941
#
# Disc length: 3975 seconds
#
# Revision: 0
# Processed by: cddbd v1.5.2PL0 Copyright (c) Steve Scherf et al.
# Submitted via: ExactAudioCopy v1.2
#
DISCID=aa0f850e
DTITLE=Terry Gillespie - Home Boy (Live)
DYEAR=2017
DGENRE=Blues
TTITLE0=New Mown Lawn
TTITLE1=Tijuana
TTITLE2=Monkey Hunger
TTITLE3=Little by Little
TTITLE4=Brother of the Blues
TTITLE5=Another Black Night
TTITLE6=I'm a Man
TTITLE7=Businessman
TTITLE8=Junco Partner
TTITLE9=The Devil Likes to Win
TTITLE10=Killing Floor
TTITLE11=Pass the Peas
TTITLE12=New Orleans Wobble
TTITLE13=New Mown Lawn (Radio Edit)
EXTD=
EXTT0=
EXTT1=
EXTT2=
EXTT3=
EXTT4=
EXTT5=
EXTT6=
EXTT7=
EXTT8=
EXTT9=
EXTT10=
EXTT11=
EXTT12=
EXTT13=
PLAYORDER=
